<?xml version="1.0" encoding="utf-8"?>
<!-- Generator: Adobe Illustrator 17.0.0, SVG Export Plug-In . SVG Version: 6.00 Build 0)  -->
<!DOCTYPE svg PUBLIC "-//W3C//DTD SVG 1.1//EN" "http://www.w3.org/Graphics/SVG/1.1/DTD/svg11.dtd">
<svg version="1.1" id="Layer_1" xmlns="http://www.w3.org/2000/svg" xmlns:xlink="http://www.w3.org/1999/xlink" x="0px" y="0px"
	 width="1000px" height="1000px" viewBox="0 0 1000 1000" enable-background="new 0 0 1000 1000" xml:space="preserve">
<g>
	<linearGradient id="SVGID_1_" gradientUnits="userSpaceOnUse" x1="497.0757" y1="555.1738" x2="497.0757" y2="555.1738">
		<stop  offset="0" style="stop-color:#0071BC"/>
		<stop  offset="1" style="stop-color:#29ABE2"/>
	</linearGradient>
	<path fill="url(#SVGID_1_)" d="M497.076,555.174"/>
</g>
<path fill="#8BBE3B" d="M561.695,730.014c-1.776-0.988-3.366-2.202-4.751-3.572c-15.407-0.424-31.306-0.667-47.654-0.667
	c-130.68,0-236.618,14.123-236.618,31.544c0,17.421,105.937,31.544,236.618,31.544c32.063,0,133.562,1.992,201.362,0
	c-12.326-5.688-46.876-14.843-59.049-20.809C620.421,758.293,590.125,745.835,561.695,730.014z"/>
<g>
	<path fill="#69B2DF" d="M375.564,571.149c13.808,7.303,27.832,13.764,43.049,16.951c6.869,1.438,13.959,1.876,20.966,2.594
		c25.117,2.574,49.606,8.06,73.592,15.843c29.977,9.727,58.597,22.481,85.661,38.673c0.45,0.269,0.95,0.457,1.867,0.892
		c0.434-5.32,0.99-10.345,1.232-15.385c1.378-28.7-4.78-55.851-17.016-81.723c-11.204-23.689-26.52-44.511-44.513-63.423
		c-17.2-18.078-36.241-33.978-57.17-47.591c-2.214-1.44-4.492-2.781-6.774-4.189c8.343-9.181,10.224-20.811,12.189-32.121
		c2.746-15.805,4.462-31.789,6.618-47.697c0.061-0.451,0.12-0.902,0.208-1.571c54.51,12.955,108.872,25.874,163.513,38.86
		c-1.792,3.365-3.482,6.499-5.136,9.651c-14.06,26.789-23.666,55.074-27.985,85.038c-4.347,30.162-3.687,60.152,4.017,89.818
		c0.764,2.943,2.49,4.617,4.73,6.498c9.658,8.11,19.421,16.155,28.453,24.936c19.842,19.291,39.388,38.892,58.783,58.634
		c5.791,5.895,10.54,12.799,16.009,19.027c15.012,17.096,33.972,26.679,56.582,28.794c13.668,1.278,27.301,2.575,40.519,6.553
		c8.283,2.493,16.324,5.562,23.452,10.559c2.677,1.877,5.257,4.012,7.47,6.41c8.485,9.195,7.828,20.243-1.457,28.617
		c-8.482,7.649-18.748,11.811-29.452,15.073c-12.829,3.909-26.028,5.528-39.389,5.929c-30.573,0.917-60.444-3.881-89.965-11.305
		c-13.365-3.361-26.621-7.131-39.244-12.789c-20.857-9.348-41.513-19.177-62.596-27.983c-20.502-8.564-41.235-16.676-62.244-23.891
		c-15.442-5.303-31.51-8.769-47.265-13.179c-29.854-8.357-59.711-16.735-88.687-27.858c-8.094-3.107-15.968-6.844-23.769-10.65
		c-16.086-7.848-23.705-21.409-25.43-38.756C354.497,601.429,365.82,580.61,375.564,571.149z"/>
</g>
<g>
	<linearGradient id="SVGID_2_" gradientUnits="userSpaceOnUse" x1="458.6648" y1="521.9645" x2="458.6648" y2="521.9645">
		<stop  offset="0" style="stop-color:#0071BC"/>
		<stop  offset="1" style="stop-color:#29ABE2"/>
	</linearGradient>
	<path fill="url(#SVGID_2_)" d="M458.665,521.964"/>
</g>
<g>
	<path fill="#33362F" d="M585.426,613.375c-0.052-1.113-6.7-112.327-106.622-158.528c-10.887-5.033-54.594-17.511-100.865-30.708
		c-5.077-1.438-10.181-2.899-15.232-4.36c-77.834-23.008-92.359-79.299-94.688-106.296c10.913,11.319,24.287,22.567,40.592,33.236
		c90.318,59.051,147.581,76.005,150.904,77.072c-2.643-1.206-56.007-26.557-144.675-84.541
		c-62.105-40.589-79.116-90.965-83.696-117.823c28.972,33.028,99.216,86.559,100.079,87.208
		c14.394,10.947,49.909,31.497,82.414,49.611c31.222,17.418,59.645,32.587,63.989,34.883c-7.511-4.662-112.328-70.81-139.598-91.545
		c-32.217-24.469-104.345-83.729-108.664-100.336l-8.349-32.123l-1.963,32.912c-0.157,2.574-2.329,49.889,38.184,99.315v0.023
		c-0.209,13.916,2.434,66.566,51.087,102.562c-12.745-3.827-23.188-7.144-29.705-9.556c-21.46-7.932-125.256-52.673-146.769-70.253
		l-11.018-9.022l2.303,13.128c0.419,2.319,8.401,43.766,60.875,79.438c3.69,10.043,26.616,61.765,113.479,86.141
		c6.595,10.344,41.56,60.883,102.697,73.269c4.92,0.997,11.882,2.227,20.702,3.757c43.418,7.654,133.762,23.541,155.353,45.761
		l9.841,10.159L585.426,613.375z M422.902,561.746c-8.715-1.531-15.624-2.76-20.361-3.711c-46.14-9.347-77.075-43.395-89.977-60.443
		c0.968,0.232,1.963,0.464,2.957,0.673c97.331,20.851,160.928,37.458,175.898,55.178c-14.394-18.23-52.552-38.293-173.438-64.2
		c-72.809-15.609-104.633-51.258-117.196-71.297c14.761,8.211,32.322,15.795,53.18,22.196c12.955,3.989,32.139,8.396,54.358,13.522
		c26.407,6.077,57.656,13.29,84.22,21.292c25.727,7.747,47.082,16.259,55.274,25.258c-18.346-21.06-80.294-42.514-136.85-55.525
		c-22.01-5.079-41.011-9.44-53.573-13.313c-81.158-24.887-109.946-69.65-119.525-91.661c37.242,22.08,120.755,57.335,136.719,63.226
		c14.892,5.497,48.914,15.354,84.481,25.536c0.105,0.023,0.209,0.07,0.314,0.093c5.103,1.461,10.233,2.922,15.363,4.384
		c43.811,12.524,89.114,25.443,99.216,30.128c76.133,35.185,95.107,110.773,99.661,139.417
		C540.438,582.435,465.43,569.237,422.902,561.746z"/>
</g>
</svg>
